<?xml version="1.0" encoding="UTF-8"?>
<svg width="32" height="32" viewBox="0 0 32 32" fill="none" xmlns="http://www.w3.org/2000/svg">
  <rect width="32" height="32" rx="8" fill="#4f46e5"/>
  <path d="M9 19.5L11.5 9H14.5C16.1667 9 17.4167 9.33333 18.25 10C19.0833 10.65 19.5 11.6 19.5 12.85C19.5 14.3833 18.9167 15.5833 17.75 16.45C16.5833 17.3167 14.95 17.75 12.85 17.75H11.85L11 22H9V19.5ZM11.75 15.5H13.4C14.4 15.5 15.1667 15.2833 15.7 14.85C16.2333 14.4167 16.5 13.8 16.5 13C16.5 12.4 16.3333 11.9667 16 11.7C15.6667 11.4333 15.1 11.3 14.3 11.3H12.7L11.75 15.5Z" fill="white"/>
  <path d="M18.5 22L21.6 11.5H23.8L23.95 12.6C24.5833 12.05 25.2667 11.625 26 11.325C26.7333 11.025 27.45 10.875 28.15 10.875C28.9833 10.875 29.6 11.075 30 11.475C30.4 11.875 30.6 12.4 30.6 13.05C30.6 13.3 30.5667 13.575 30.5 13.875C30.4333 14.175 30.35 14.4583 30.25 14.725L28.5 21.5H26.3L27.95 15.15C28 15 28.05 14.85 28.1 14.7C28.15 14.55 28.175 14.4083 28.175 14.275C28.175 14.025 28.1 13.85 27.95 13.75C27.8 13.65 27.55 13.6 27.2 13.6C26.8 13.6 26.4 13.7 26 13.9C25.6 14.1 25.2667 14.35 25 14.65L23.05 21.5H20.85L20.5 22H18.5Z" fill="white"/>
</svg> 